<svg xmlns="http://www.w3.org/2000/svg" xmlns:svg="http://www.w3.org/2000/svg" id="svg1611" width="63.821" height="58.194" version="1.1" viewBox="0 0 16.886 15.397"><metadata id="metadata1608"/><g id="layer1" transform="translate(-101.92601,-137.35496)"><g id="g44794" transform="matrix(0.26458333,0,0,0.26458333,-75.108579,90.478449)" style="display:inline;opacity:1"><ellipse id="path15994" cx="34.5" cy="125.25" rx="7" ry="6.75" transform="matrix(2.0665794,0,0,2.1694948,624.0162,-57.278861)" style="fill:#666;fill-opacity:1;fill-rule:nonzero;stroke:#191919;stroke-width:.99938136;stroke-linecap:round;stroke-linejoin:round;stroke-miterlimit:4;stroke-dasharray:none;stroke-dashoffset:0;stroke-opacity:1;opacity:1"/><ellipse id="path16006" cx="34.5" cy="125.25" rx="7" ry="6.75" transform="matrix(1.1366073,0,0,1.13391,663.13396,43.859512)" style="fill:#666;fill-opacity:1;fill-rule:nonzero;stroke:#191919;stroke-width:1.86398351;stroke-linecap:round;stroke-linejoin:round;stroke-miterlimit:4;stroke-dasharray:none;stroke-dashoffset:0;stroke-opacity:1;opacity:1"/><ellipse style="fill:#7f7f7f;fill-opacity:1;fill-rule:nonzero;stroke:#191919;stroke-width:1.66974521;stroke-linecap:round;stroke-linejoin:round;stroke-miterlimit:4;stroke-dasharray:none;stroke-dashoffset:0;stroke-opacity:1;opacity:1" id="path16044" cx="34.5" cy="125.25" rx="7" ry="6.75" transform="matrix(-0.62241705,0,0,0.64510631,723.40949,106.35119)"/><ellipse style="fill:#666;fill-opacity:1;fill-rule:nonzero;stroke:#191919;stroke-width:1.86398351;stroke-linecap:round;stroke-linejoin:round;stroke-miterlimit:4;stroke-dasharray:none;stroke-dashoffset:0;stroke-opacity:1;opacity:1" id="path16004" cx="34.5" cy="125.25" rx="7" ry="6.75" transform="matrix(1.1366073,0,0,1.13391,645.46298,43.859512)"/><ellipse id="path16042" cx="34.5" cy="125.25" rx="7" ry="6.75" transform="matrix(0.62241705,0,0,0.64510631,664.30235,106.182)" style="fill:#7f7f7f;fill-opacity:1;fill-rule:nonzero;stroke:#191919;stroke-width:1.66974521;stroke-linecap:round;stroke-linejoin:round;stroke-miterlimit:4;stroke-dasharray:none;stroke-dashoffset:0;stroke-opacity:1;opacity:1"/><ellipse style="fill:#666;fill-opacity:1;fill-rule:nonzero;stroke:#191919;stroke-width:1.23083544;stroke-linecap:round;stroke-linejoin:round;stroke-miterlimit:4;stroke-dasharray:none;stroke-dashoffset:0;stroke-opacity:1;opacity:1" id="path15992" cx="34.5" cy="125.25" rx="7" ry="6.75" transform="matrix(1.7192405,0,0,1.7192405,635.39155,-18.511966)"/><ellipse id="path16194" cx="34.5" cy="125.25" rx="7" ry="6.75" transform="matrix(1.1366073,0,0,0.82769124,656.30327,115.76264)" style="fill:#999;fill-opacity:1;fill-rule:nonzero;stroke:#191919;stroke-width:1.09085536;stroke-linecap:round;stroke-linejoin:round;stroke-miterlimit:4;stroke-dasharray:none;stroke-dashoffset:0;stroke-opacity:1;opacity:1"/><ellipse style="fill:#666;fill-opacity:1;fill-rule:nonzero;stroke:#191919;stroke-width:1.93959522;stroke-linecap:round;stroke-linejoin:round;stroke-miterlimit:4;stroke-dasharray:none;stroke-dashoffset:0;stroke-opacity:1;opacity:1" id="path15998" cx="34.5" cy="125.25" rx="7" ry="6.75" transform="matrix(1.2532443,0,0,0.94976286,661.3667,109.0755)"/><ellipse id="path15996" cx="34.5" cy="125.25" rx="7" ry="6.75" transform="matrix(1.2022416,0,0,0.92511135,646.17318,111.98364)" style="fill:#666;fill-opacity:1;fill-rule:nonzero;stroke:#191919;stroke-width:2.00652075;stroke-linecap:round;stroke-linejoin:round;stroke-miterlimit:4;stroke-dasharray:none;stroke-dashoffset:0;stroke-opacity:1;opacity:1"/><ellipse style="fill:#000;fill-opacity:1;fill-rule:nonzero;stroke:none;opacity:1" id="path16008" cx="32.173" cy="125.461" rx="1.061" ry=".972" transform="matrix(2.5007136,0,0,2.5007136,610.24894,-120.05118)"/><ellipse id="path16010" cx="32.173" cy="125.461" rx="1.061" ry=".972" transform="matrix(2.5007136,0,0,2.5007136,618.34158,-120.05118)" style="fill:#000;fill-opacity:1;fill-rule:nonzero;stroke:none;opacity:1"/><ellipse style="fill:#999;fill-opacity:1;fill-rule:nonzero;stroke:#191919;stroke-width:1.24187148;stroke-linecap:round;stroke-linejoin:round;stroke-miterlimit:4;stroke-dasharray:none;stroke-dashoffset:0;stroke-opacity:1;opacity:1" id="path16012" cx="34.5" cy="125.25" rx="7" ry="6.75" transform="matrix(1.1366073,0,0,0.6386301,655.66519,124.1286)"/><ellipse style="fill:#000;fill-opacity:1;fill-rule:nonzero;stroke:none;opacity:1" id="path16014" cx="32.173" cy="125.461" rx="1.061" ry=".972" transform="matrix(2.5007136,0,0,2.5007136,614.54256,-113.3649)"/><g style="display:inline;opacity:1" id="g44638" transform="rotate(30,459.01564,644.93508)"><g id="g44640" transform="translate(416.46447)"><path style="fill:#b3b3b3;fill-opacity:1;stroke:#1a1a1a;stroke-width:1.5;stroke-linecap:round;stroke-linejoin:round;stroke-miterlimit:4;stroke-dasharray:none;stroke-dashoffset:0;stroke-opacity:1;opacity:1" id="path44642" d="m 36.8125,152.625 c -3.279191,0 -5.9375,2.49042 -5.9375,5.5625 0,3.07208 2.658309,5.5625 5.9375,5.5625 3.279191,0 5.9375,-2.49042 5.9375,-5.5625 0,-3.07208 -2.658309,-5.5625 -5.9375,-5.5625 z m 0,3.25 c 1.377636,0 2.5,1.03534 2.5,2.3125 0,1.27716 -1.122364,2.3125 -2.5,2.3125 -1.377636,0 -2.5,-1.03534 -2.5,-2.3125 0,-1.27716 1.122364,-2.3125 2.5,-2.3125 z"/><path style="fill:#4c4c4c;fill-opacity:1;stroke:#191919;stroke-width:1.5;stroke-linecap:round;stroke-linejoin:round;stroke-miterlimit:4;stroke-dasharray:none;stroke-dashoffset:0;stroke-opacity:1;opacity:1" id="path44644" d="m 35.59375,147.9375 c -0.846451,0.23792 -1.646179,0.51393 -2.4375,0.8125 H 32.5 c -0.928216,0 -1.724942,0.50274 -2.15625,1.25 -8.468506,4.28602 -13.59463,12.23516 -17.90625,21.09375 l 6.71875,6.71875 C 24.177879,168.84299 28.250768,158.9294 38.8125,155.5 H 56.25 c 1.385,0 2.5,-1.115 2.5,-2.5 v -1.75 c 0,-1.385 -1.115,-2.5 -2.5,-2.5 H 36.40625 Z"/><rect id="rect44646" width="8.458" height="4" x="140.137" y="-37.219" ry="1.481" transform="rotate(90)" style="fill:#b3b3b3;fill-opacity:1;stroke:#1a1a1a;stroke-width:1.5;stroke-linecap:round;stroke-linejoin:round;stroke-miterlimit:4;stroke-dasharray:none;stroke-dashoffset:0;stroke-opacity:1;opacity:1"/><rect style="fill:#b3b3b3;fill-opacity:1;stroke:#1a1a1a;stroke-width:1.5;stroke-linecap:round;stroke-linejoin:round;stroke-miterlimit:4;stroke-dasharray:none;stroke-dashoffset:0;stroke-opacity:1;opacity:1" id="rect44648" width="37.75" height="6.75" x="32.5" y="144.75" ry="2.5"/></g><path id="path44660" d="m 451.32002,146.35325 h 34.02127" style="fill:none;stroke:#ccc;stroke-width:1.99999976;stroke-linecap:round;stroke-linejoin:round;stroke-opacity:1;opacity:1"/></g><path style="fill:#666;fill-opacity:1;fill-rule:nonzero;stroke:#191919;stroke-width:2.1161015;stroke-linecap:round;stroke-linejoin:round;stroke-miterlimit:4;stroke-dashoffset:0;stroke-opacity:1;opacity:1" id="path16000" d="m 681.18623,209.29906 c 1.77462,0.0154 3.98141,0.57143 6.23403,1.67268 4.66059,2.27842 5.7773,5.41189 4.93073,7.75911 -0.84657,2.34719 -3.33582,3.01931 -7.99642,0.74088 -2.82488,-1.38101 -5.07344,-3.3026 -6.218,-5.12475 -0.28325,-3.01766 1.7166,-4.41895 3.04966,-5.04792 z"/><path style="fill:#666;fill-opacity:1;fill-rule:nonzero;stroke:#191919;stroke-width:2.1161015;stroke-linecap:round;stroke-linejoin:round;stroke-miterlimit:4;stroke-dashoffset:0;stroke-opacity:1;opacity:1" id="path44780" d="m 709.47082,209.60131 c -1.80789,-0.0998 -4.17118,0.43672 -6.58905,1.6163 -4.55121,2.22035 -5.49591,5.00286 -4.67149,7.2948 0.82441,2.29192 3.10575,3.22536 7.65698,1.005 3.05092,-1.48841 5.41428,-3.62285 6.39256,-5.55873 -0.19264,-2.39055 -0.93,-3.73625 -2.789,-4.35737 z"/></g></g></svg>