<svg xmlns="http://www.w3.org/2000/svg" xmlns:svg="http://www.w3.org/2000/svg" id="svg2" width="101.248" height="211.738" version="1.1" viewBox="0 0 94.92 198.504"><metadata id="metadata7"/><g id="layer1" transform="translate(-361.11131,-438.8244)"><g id="g4492" transform="matrix(0.69284915,0,0,0.69284915,398.95479,526.57573)"><rect id="rect4453" width="59" height="125" x="-15.62" y="-34.953" ry="23.5" style="opacity:1;fill:#000;fill-opacity:1;stroke:none;stroke-width:3;stroke-miterlimit:4;stroke-dasharray:none;stroke-dashoffset:0;stroke-opacity:1"/><path id="rect4461" d="m 54.622034,51.5935 0,22.17774 c 0,16.64757 -18.17065,30.04882 -40.74219,30.04882 -22.5715394,0 -40.74219,-13.40125 -40.74219,-30.04882 l 0,-22.17774 c 0,-7.22795 -22.85156,-6.62462 -22.85156,0 l 0,24.04883 c 0,22.4328 21.14593,41.07852 49.59375066,45.75976 l 0,17.14454 -16.00000066,0 0,21.30468 16.00000066,0 27.99999934,0 16,0 0,-21.30468 -16,0 0,-17.14454 c 28.44782,-4.68124 49.59375,-23.32696 49.59375,-45.75976 l 0,-24.04883 c -2.662604,-10.181085 -22.513759,-6.824935 -22.85156,0 z" style="opacity:1;fill:#000;fill-opacity:1;stroke:none;stroke-width:3;stroke-miterlimit:4;stroke-dasharray:none;stroke-dashoffset:0;stroke-opacity:1"/><path id="path4483" d="m -14.86896,-54.934299 c 5.1056571,-10.753621 16.0648311,-18.18889 28.760604,-18.18889 12.67615,0 23.621068,7.412302 28.736893,18.13905" style="opacity:1;fill:none;fill-opacity:1;stroke:#000;stroke-width:10;stroke-linecap:round;stroke-linejoin:round;stroke-miterlimit:4;stroke-dasharray:none;stroke-dashoffset:0;stroke-opacity:1"/><path style="opacity:1;fill:none;fill-opacity:1;stroke:#000;stroke-width:10;stroke-linecap:round;stroke-linejoin:round;stroke-miterlimit:4;stroke-dasharray:none;stroke-dashoffset:0;stroke-opacity:1" id="path4488" d="m -30.629854,-70.450545 c 7.904725,-16.074212 24.872035,-27.188245 44.527997,-27.188245 19.62558,0 36.570819,11.079703 44.491286,27.113746"/><path id="path4490" d="m -49.588647,-82.464706 c 11.271727,-23.168784 35.46623,-39.188154 63.49461,-39.188154 27.985056,0 52.148086,15.96989 63.44226,39.080774" style="opacity:1;fill:none;fill-opacity:1;stroke:#000;stroke-width:10;stroke-linecap:round;stroke-linejoin:round;stroke-miterlimit:4;stroke-dasharray:none;stroke-dashoffset:0;stroke-opacity:1"/></g></g></svg>