<svg xmlns="http://www.w3.org/2000/svg" xmlns:svg="http://www.w3.org/2000/svg" id="svg2" width="216.786" height="273.816" version="1.1" viewBox="0 0 216.786 273.816"><defs id="defs4"><marker id="TriangleOutS" orient="auto" refX="0" refY="0" style="overflow:visible"><path id="path4357" d="m 5.77,0 -8.65,5 0,-10 8.65,5 z" transform="scale(0.2,0.2)" style="fill-rule:evenodd;stroke:#000;stroke-width:1pt"/></marker><marker style="overflow:visible" id="marker4717" orient="auto" refX="0" refY="0"><path style="fill:#000;fill-opacity:1;fill-rule:evenodd;stroke:#000;stroke-width:1pt;stroke-opacity:1" id="path4719" d="m 5.77,0 -8.65,5 0,-10 8.65,5 z" transform="scale(0.2,0.2)"/></marker><marker id="marker4567" orient="auto" refX="0" refY="0" style="overflow:visible"><path id="path4569" d="m 5.77,0 -8.65,5 0,-10 8.65,5 z" transform="scale(0.2,0.2)" style="fill:#000;fill-opacity:1;fill-rule:evenodd;stroke:#000;stroke-width:1pt;stroke-opacity:1"/></marker><marker id="TriangleOutM" orient="auto" refX="0" refY="0" style="overflow:visible"><path id="path4354" d="m 5.77,0 -8.65,5 0,-10 8.65,5 z" transform="scale(0.4,0.4)" style="fill:#000;fill-opacity:1;fill-rule:evenodd;stroke:#000;stroke-width:1pt;stroke-opacity:1"/></marker></defs><metadata id="metadata7"/><g id="layer1" transform="translate(-63.517303,-350.3809)"><rect style="opacity:1;fill:#000;fill-opacity:1;stroke:none;stroke-width:3;stroke-miterlimit:4;stroke-dasharray:3,6;stroke-dashoffset:0;stroke-opacity:1" id="rect4190" width="177.787" height="114.147" x="63.517" y="463.582"/><rect id="rect4194" width="26.264" height="114.147" x="139.279" y="497.928" style="opacity:1;fill:#000;fill-opacity:1;stroke:none;stroke-width:3;stroke-miterlimit:4;stroke-dasharray:3,6;stroke-dashoffset:0;stroke-opacity:1"/><rect style="opacity:1;fill:#000;fill-opacity:1;stroke:none;stroke-width:3;stroke-miterlimit:4;stroke-dasharray:3,6;stroke-dashoffset:0;stroke-opacity:1" id="rect4196" width="109.096" height="15.657" x="97.863" y="608.539"/><path style="opacity:1;fill:#000;fill-opacity:1;stroke:none;stroke-width:3;stroke-miterlimit:4;stroke-dasharray:3,6;stroke-dashoffset:0;stroke-opacity:1" id="path4198" d="m 224.58866,350.38089 c -30.77052,-2.4e-4 -55.71506,19.1878 -55.71485,42.85743 0.0157,8.49194 3.3107,16.78887 9.4668,23.83789 3.11245,9.96822 1.30822,12.52009 -20.17997,36.16239 l 39.74247,-22.37918 c 8.18538,3.43573 17.36087,5.23617 26.68555,5.23632 30.7705,2.3e-4 55.71502,-19.1878 55.71483,-42.85741 2.1e-4,-23.66963 -24.94432,-42.85767 -55.71483,-42.85744 z"/></g></svg>