<svg xmlns="http://www.w3.org/2000/svg" xmlns:svg="http://www.w3.org/2000/svg" xmlns:xlink="http://www.w3.org/1999/xlink" id="svg4041" width="98.279" height="74.825" version="1.1"><defs id="defs4043"><linearGradient id="linearGradient6642"><stop style="stop-color:#000;stop-opacity:1" id="stop6644" offset="0"/><stop style="stop-color:#000;stop-opacity:0" id="stop6646" offset="1"/></linearGradient><filter id="filter3910" width="1.62" height="1.072" x="-.31" y="-.036" color-interpolation-filters="sRGB"><feGaussianBlur id="feGaussianBlur3912" stdDeviation="1.046"/></filter><filter id="filter3916" color-interpolation-filters="sRGB"><feGaussianBlur id="feGaussianBlur3918" result="result91" stdDeviation="5"/><feComposite id="feComposite3920" in="SourceGraphic" in2="result91" operator="over"/></filter><filter id="filter3942" color-interpolation-filters="sRGB"><feGaussianBlur id="feGaussianBlur3944" result="result91" stdDeviation="5"/><feComposite id="feComposite3946" in="SourceGraphic" in2="result91" operator="over"/></filter><linearGradient id="linearGradient6648" x1="51.837" x2="54.591" y1="49.942" y2="49.762" gradientTransform="matrix(-0.96592583,-0.25881905,-0.25881905,0.96592583,114.49067,15.131758)" gradientUnits="userSpaceOnUse" xlink:href="#linearGradient6642"/><linearGradient id="linearGradient6759" x1="51.837" x2="54.591" y1="49.942" y2="49.762" gradientTransform="matrix(-0.96592583,-0.25881905,-0.25881905,0.96592583,114.49067,15.131758)" gradientUnits="userSpaceOnUse" xlink:href="#linearGradient6642"/><linearGradient id="linearGradient6794" x1="51.837" x2="54.591" y1="49.942" y2="49.762" gradientTransform="matrix(-0.96592583,-0.25881905,-0.25881905,0.96592583,114.49067,15.131758)" gradientUnits="userSpaceOnUse" xlink:href="#linearGradient6642"/></defs><metadata id="metadata4046"/><g id="layer1" transform="translate(-370.31321,-567.78098)" style="display:inline"><g id="g9509" transform="matrix(-0.83962527,0,0,1,595.31267,480.29075)"><path style="color:#000;fill:#4d4d4d;fill-opacity:1;fill-rule:nonzero;stroke:#1a1a1a;stroke-width:2.18266559;stroke-linecap:round;stroke-linejoin:round;stroke-miterlimit:4;stroke-opacity:1;stroke-dashoffset:0;marker:none;visibility:visible;display:inline;overflow:visible;enable-background:accumulate" id="rect9502" d="m 163.89276,90.963143 48.82513,0.574066 38.48895,10.167801 c 2.02451,0.53482 13.31852,3.80952 13.28196,6.00144 l -0.84246,50.51271 c -0.0366,2.1919 -11.29772,1.93649 -13.41392,1.91162 l -87.47608,-1.02852 c -2.11622,-0.0246 -3.79047,-1.80953 -3.7539,-4.00145 l 1.00921,-60.511707 c 0.0365,-2.19192 1.76491,-3.650841 3.88111,-3.62596 z"/><path style="color:#000;fill:#666;fill-opacity:1;fill-rule:nonzero;stroke:#333;stroke-width:2.18266582;stroke-linecap:round;stroke-linejoin:round;stroke-miterlimit:4;stroke-opacity:1;stroke-dashoffset:0;marker:none;visibility:visible;display:inline;overflow:visible;enable-background:accumulate" id="rect8598" d="m 159.92138,90.000008 80.92128,0 c 2.23781,0 4.12559,1.802726 4.03936,4.039358 L 242.5,155.81779 c -0.0862,2.23663 -1.80155,4.03936 -4.03936,4.03936 l -80.92128,0 c -2.23781,0 -4.1256,-1.80273 -4.03936,-4.03936 l 2.38202,-61.778424 c 0.0862,-2.236632 1.80155,-4.039358 4.03936,-4.039358 z"/><g id="g9491" transform="matrix(1,0,-0.03739427,1,2.2642234,0)"><rect style="color:#000;fill:#fff;fill-opacity:1;fill-rule:nonzero;stroke:#4d4d4d;stroke-width:2.18268037;stroke-opacity:1;marker:none;visibility:visible;display:inline;overflow:visible;filter:url(#filter3916);enable-background:accumulate" id="rect8602" width="70" height="51.644" x="162.357" y="98.43" ry="5.784" transform="matrix(1,0,0.00517203,0.99998662,0,0)"/><g id="g9439" transform="translate(1.2499994,-1.5454546)" style="opacity:.75"><rect id="rect9404" width="11" height="10.5" x="177" y="109.75" style="opacity:.85;color:#000;fill:#000;fill-opacity:1;fill-rule:nonzero;stroke:none;stroke-width:1;marker:none;visibility:visible;display:inline;overflow:visible;enable-background:accumulate"/><use id="use9406" width="799.998" height="352" x="0" y="0" transform="translate(28,0)" xlink:href="#rect9404"/><use id="use9408" width="799.998" height="352" x="0" y="0" transform="matrix(0.63636365,0,0,0.63636365,80.863635,65.318183)" xlink:href="#rect9404"/><use id="use9431" width="799.998" height="352" x="0" y="0" transform="matrix(0.63636365,0,0,0.63636365,72.863635,65.318183)" xlink:href="#rect9404"/><use id="use9433" width="799.998" height="352" x="0" y="0" transform="matrix(0.63636365,0,0,0.63636365,88.863635,65.318183)" xlink:href="#rect9404"/><use id="use9435" width="799.998" height="352" x="0" y="0" transform="matrix(0.63636365,0,0,0.63636365,96.863635,57.318183)" xlink:href="#rect9404"/><use id="use9437" width="799.998" height="352" x="0" y="0" transform="matrix(0.63636365,0,0,0.63636365,64.863635,57.318183)" xlink:href="#rect9404"/></g></g><path id="path3908" d="m 240.84266,90.000008 c 2.23781,0 4.12559,1.802726 4.03936,4.039358 l -0.2454,6.364494 c 6.21543,5.33405 10.98469,42.13033 -2.13662,55.41393 -1.82043,1.84294 -1.80155,4.03936 -4.03936,4.03936 -3.62454,-7.19776 -0.6875,-67.015427 2.38202,-69.857142 z" transform="matrix(0.83006783,0,0,1,41.613334,0)" style="opacity:.15;color:#000;fill:#000;fill-opacity:1;fill-rule:nonzero;stroke:none;stroke-width:2.18266582;marker:none;visibility:visible;display:inline;overflow:visible;filter:url(#filter3910);enable-background:accumulate"/><path style="opacity:.15;color:#000;fill:#000;fill-opacity:1;fill-rule:nonzero;stroke:none;stroke-width:2.18266582;marker:none;visibility:visible;display:inline;overflow:visible;filter:url(#filter3910);enable-background:accumulate" id="path3914" d="m 240.84266,90.000008 c 2.23781,0 4.12559,1.802726 4.03936,4.039358 l -0.2454,6.364494 c -2.35037,4.34702 0.70003,40.89626 -2.13662,55.41393 -0.42833,2.19212 -1.80155,4.03936 -4.03936,4.03936 -3.62454,-7.19776 -0.6875,-67.015427 2.38202,-69.857142 z" transform="matrix(-0.0236129,0.6966982,1.2703893,0.02665994,44.360811,-11.933599)"/><path style="fill:#95e454;fill-opacity:1;stroke:#4d4d4d;filter:url(#filter3942)" id="path3924" d="m 70.710676,67.228401 a 2.5253813,2.5253813 0 0 1 -2.525381,2.525382 2.5253813,2.5253813 0 0 1 -2.525381,-2.525382 2.5253813,2.5253813 0 0 1 2.525381,-2.525381 2.5253813,2.5253813 0 0 1 2.525381,2.525381 z" transform="matrix(1.1910075,0,0,1,150.92455,87.49023)"/></g></g></svg>