<svg xmlns="http://www.w3.org/2000/svg" xmlns:svg="http://www.w3.org/2000/svg" id="svg2" width="209.614" height="208.068" version="1.1" viewBox="0 0 209.614 208.068"><defs id="defs4"><marker id="TriangleOutS" orient="auto" refX="0" refY="0" style="overflow:visible"><path id="path4357" d="m 5.77,0 -8.65,5 0,-10 8.65,5 z" transform="scale(0.2,0.2)" style="fill-rule:evenodd;stroke:#000;stroke-width:1pt"/></marker><marker style="overflow:visible" id="marker4717" orient="auto" refX="0" refY="0"><path style="fill:#000;fill-opacity:1;fill-rule:evenodd;stroke:#000;stroke-width:1pt;stroke-opacity:1" id="path4719" d="m 5.77,0 -8.65,5 0,-10 8.65,5 z" transform="scale(0.2,0.2)"/></marker><marker id="marker4567" orient="auto" refX="0" refY="0" style="overflow:visible"><path id="path4569" d="m 5.77,0 -8.65,5 0,-10 8.65,5 z" transform="scale(0.2,0.2)" style="fill:#000;fill-opacity:1;fill-rule:evenodd;stroke:#000;stroke-width:1pt;stroke-opacity:1"/></marker><marker id="TriangleOutM" orient="auto" refX="0" refY="0" style="overflow:visible"><path id="path4354" d="m 5.77,0 -8.65,5 0,-10 8.65,5 z" transform="scale(0.4,0.4)" style="fill:#000;fill-opacity:1;fill-rule:evenodd;stroke:#000;stroke-width:1pt;stroke-opacity:1"/></marker></defs><metadata id="metadata7"/><g id="layer1" transform="translate(-68.086431,-398.04315)"><g id="g4183" transform="translate(340,-1.4285714)"><path id="path4171" d="m -175.88885,504.11473 -0.82402,19.88895 -16.41399,-11.26189 -8.37247,18.05965 -10.8548,-16.68599 -14.64629,13.48094 -3.64308,-19.56981 -18.69033,6.84988 4.12327,-19.47429 -19.88895,-0.82402 11.2619,-16.41399 -18.05966,-8.37247 16.686,-10.85481 -13.48094,-14.64628 19.5698,-3.64308 -6.84987,-18.69033 19.47429,4.12327 0.82402,-19.88895 16.41399,11.26189 8.37246,-18.05965 10.85481,16.68599 14.64629,-13.48094 3.64308,19.56981 18.69033,-6.84988 -4.12327,19.47429 19.88895,0.82402 -11.2619,16.41399 18.05966,8.37247 -16.686,10.85481 13.48094,14.64628 -19.5698,3.64308 6.84987,18.69034 z" transform="matrix(1.5951453,0,0,1.5833746,161.80208,-232.91819)" style="opacity:1;fill:#000;fill-opacity:1;stroke:none;stroke-width:3;stroke-miterlimit:4;stroke-dasharray:3,6;stroke-dashoffset:0;stroke-opacity:1"/><g id="g4179" transform="matrix(1.5405166,0,0,1.5405166,91.820756,-274.04076)"><rect style="opacity:1;fill:#fff;fill-opacity:1;stroke:none;stroke-width:3;stroke-miterlimit:4;stroke-dasharray:3,6;stroke-dashoffset:0;stroke-opacity:1" id="rect4173" width="12.05" height="45.886" x="-174.103" y="471.694"/><circle style="opacity:1;fill:#fff;fill-opacity:1;stroke:none;stroke-width:3;stroke-miterlimit:4;stroke-dasharray:3,6;stroke-dashoffset:0;stroke-opacity:1" id="path4177" cx="-168.078" cy="531.339" r="6.429"/></g></g></g></svg>